nColumns=28
nRows=80
DataType=double
version=3
OpenSimVersion=4.1
endheader
time	ground_force_1_vx	ground_force_1_vy	ground_force_1_vz	ground_force_1_px	ground_force_1_py	ground_force_1_pz	ground_force_1_mx	ground_force_1_my	ground_force_1_mz	ground_force_2_vx	ground_force_2_vy	ground_force_2_vz	ground_force_2_px	ground_force_2_py	ground_force_2_pz	ground_force_2_mx	ground_force_2_my	ground_force_2_mz	ground_force_3_vx	ground_force_3_vy	ground_force_3_vz	ground_force_3_px	ground_force_3_py	ground_force_3_pz	ground_force_3_mx	ground_force_3_my	ground_force_3_mz
3.29	27.885	349.904	-58.4236	-0.273573	0.006	-0.441371	0	0.363411	0	10.4998	191.916	45.0054	-0.316825	0.006	-0.97407	0	2.20714	0	0	0	0	0	0	0	0	0	0
3.3	28.1806	361.852	-59.8607	-0.272906	0.006	-0.441106	0	0.258559	0	11.156	191.177	44.8156	-0.317334	0.006	-0.973932	0	2.26839	0	0	0	0	0	0	0	0	0	0
3.31	27.9889	373.55	-61.2897	-0.271998	0.006	-0.440814	0	0.145055	0	11.6906	190.378	44.551	-0.317723	0.006	-0.973813	0	2.31895	0	0	0	0	0	0	0	0	0	0
3.32	27.3196	384.809	-62.6982	-0.27087	0.006	-0.440497	0	0.026085	0	12.1361	189.501	44.1654	-0.318009	0.006	-0.973703	0	2.35862	0	0	0	0	0	0	0	0	0	0
3.33	26.2061	395.457	-64.0587	-0.269543	0.006	-0.44016	0	-0.093942	0	12.5474	188.465	43.5782	-0.318211	0.006	-0.973584	0	2.38706	0	0	0	0	0	0	0	0	0	0
3.34	24.7087	405.33	-65.3294	-0.268039	0.006	-0.439811	0	-0.209602	0	12.9861	187.144	42.7002	-0.318348	0.006	-0.973436	0	2.40395	0	0	0	0	0	0	0	0	0	0
3.35	22.9083	414.291	-66.4605	-0.266378	0.006	-0.439462	0	-0.315029	0	13.5011	185.414	41.4674	-0.318442	0.006	-0.973241	0	2.40909	0	0	0	0	0	0	0	0	0	0
3.36	20.8925	422.257	-67.4004	-0.264578	0.006	-0.439125	0	-0.40451	0	14.1176	183.203	39.8654	-0.318508	0.006	-0.972988	0	2.40263	0	0	0	0	0	0	0	0	0	0
3.37	18.7478	429.203	-68.0963	-0.262655	0.006	-0.438813	0	-0.473021	0	14.839	180.533	37.9358	-0.318555	0.006	-0.972675	0	2.38532	0	0	0	0	0	0	0	0	0	0
3.38	16.557	435.142	-68.4991	-0.260622	0.006	-0.438538	0	-0.51695	0	15.6496	177.528	35.7681	-0.318587	0.006	-0.972311	0	2.35849	0	0	0	0	0	0	0	0	0	0
3.39	14.3916	440.132	-68.5723	-0.258487	0.006	-0.438312	0	-0.534679	0	16.5166	174.385	33.4788	-0.318599	0.006	-0.971916	0	2.32375	0	0	0	0	0	0	0	0	0	0
3.4	12.2987	444.281	-68.2984	-0.256256	0.006	-0.438141	0	-0.527025	0	17.3947	171.329	31.1853	-0.318584	0.006	-0.971514	0	2.28288	0	0	0	0	0	0	0	0	0	0
3.41	10.2915	447.744	-67.6799	-0.25393	0.006	-0.438033	0	-0.497436	0	18.2354	168.569	28.9811	-0.318534	0.006	-0.971131	0	2.23741	0	0	0	0	0	0	0	0	0	0
3.42	8.35268	450.707	-66.7369	-0.251508	0.006	-0.43799	0	-0.451948	0	18.9965	166.256	26.9222	-0.318443	0.006	-0.970789	0	2.18846	0	0	0	0	0	0	0	0	0	0
3.43	6.45264	453.362	-65.5049	-0.248994	0.006	-0.43801	0	-0.398661	0	19.6488	164.46	25.0249	-0.318306	0.006	-0.970502	0	2.13694	0	0	0	0	0	0	0	0	0	0
3.44	4.56646	455.877	-64.0306	-0.246402	0.006	-0.43809	0	-0.346748	0	20.177	163.16	23.276	-0.318121	0.006	-0.970275	0	2.08361	0	0	0	0	0	0	0	0	0	0
3.45	2.68351	458.365	-62.3681	-0.243755	0.006	-0.438222	0	-0.305451	0	20.577	162.256	21.6479	-0.317893	0.006	-0.970105	0	2.02941	0	0	0	0	0	0	0	0	0	0
3.46	0.808422	460.877	-60.5735	-0.241085	0.006	-0.438393	0	-0.283142	0	20.8516	161.599	20.1132	-0.317627	0.006	-0.96998	0	1.97551	0	0	0	0	0	0	0	0	0	0
3.47	-1.04508	463.418	-58.704	-0.238429	0.006	-0.438592	0	-0.286784	0	21.0056	161.027	18.6514	-0.317331	0.006	-0.969889	0	1.92315	0	0	0	0	0	0	0	0	0	0
3.48	-2.85912	465.973	-56.8153	-0.235825	0.006	-0.438805	0	-0.321529	0	21.0399	160.41	17.2498	-0.31701	0.006	-0.969821	0	1.87333	0	0	0	0	0	0	0	0	0	0
3.49	-4.61871	468.518	-54.9584	-0.23331	0.006	-0.439018	0	-0.390535	0	20.9504	159.671	15.8988	-0.316668	0.006	-0.969761	0	1.82621	0	0	0	0	0	0	0	0	0	0
3.5	-6.31608	471.032	-53.175	-0.230913	0.006	-0.439221	0	-0.494995	0	20.7321	158.802	14.5886	-0.316302	0.006	-0.969699	0	1.78122	0	0	0	0	0	0	0	0	0	0
3.51	-7.94663	473.506	-51.4925	-0.22866	0.006	-0.439405	0	-0.634277	0	20.3866	157.841	13.3091	-0.315908	0.006	-0.969621	0	1.73747	0	0	0	0	0	0	0	0	0	0
3.52	-9.50058	475.943	-49.9247	-0.226573	0.006	-0.439567	0	-0.806233	0	19.9275	156.853	12.0529	-0.315479	0.006	-0.969517	0	1.6943	0	0	0	0	0	0	0	0	0	0
3.53	-10.9565	478.36	-48.4745	-0.224668	0.006	-0.439704	0	-1.00736	0	19.3797	155.909	10.8177	-0.31501	0.006	-0.969379	0	1.65143	0	0	0	0	0	0	0	0	0	0
3.54	-12.2799	480.778	-47.1383	-0.222959	0.006	-0.439818	0	-1.23289	0	18.7734	155.079	9.60895	-0.314491	0.006	-0.969205	0	1.609	0	0	0	0	0	0	0	0	0	0
3.55	-13.4266	483.218	-45.9068	-0.221454	0.006	-0.439912	0	-1.47728	0	18.1352	154.428	8.4385	-0.313912	0.006	-0.968998	0	1.56724	0	0	0	0	0	0	0	0	0	0
3.56	-14.3493	485.702	-44.7674	-0.220156	0.006	-0.439988	0	-1.73484	0	17.4839	154.01	7.32175	-0.31326	0.006	-0.968764	0	1.5263	0	0	0	0	0	0	0	0	0	0
3.57	-15.0081	488.253	-43.7058	-0.219061	0.006	-0.440049	0	-2.00041	0	16.83	153.868	6.27367	-0.312522	0.006	-0.968513	0	1.48626	0	0	0	0	0	0	0	0	0	0
3.58	-15.3829	490.898	-42.71	-0.218155	0.006	-0.440097	0	-2.26985	0	16.1784	154.028	5.30675	-0.311688	0.006	-0.968258	0	1.44719	0	0	0	0	0	0	0	0	0	0
3.59	-15.4773	493.666	-41.7713	-0.217419	0.006	-0.440136	0	-2.54038	0	15.53	154.509	4.43251	-0.310745	0.006	-0.968012	0	1.40927	0	0	0	0	0	0	0	0	0	0
3.6	-15.3094	496.579	-40.8836	-0.216827	0.006	-0.440165	0	-2.81046	0	14.8836	155.321	3.66348	-0.309683	0.006	-0.967789	0	1.37278	0	0	0	0	0	0	0	0	0	0
3.61	-14.9023	499.65	-40.0425	-0.216349	0.006	-0.440185	0	-3.07946	0	14.2383	156.471	3.01175	-0.308491	0.006	-0.967604	0	1.33792	0	0	0	0	0	0	0	0	0	0
3.62	-14.2829	502.887	-39.245	-0.215953	0.006	-0.440198	0	-3.3475	0	13.5954	157.968	2.48573	-0.307162	0.006	-0.96747	0	1.30457	0	0	0	0	0	0	0	0	0	0
3.63	-13.4808	506.293	-38.489	-0.215605	0.006	-0.440203	0	-3.61528	0	12.9577	159.816	2.08846	-0.305689	0.006	-0.967399	0	1.27223	0	0	0	0	0	0	0	0	0	0
3.64	-12.5289	509.866	-37.7735	-0.215275	0.006	-0.4402	0	-3.88358	0	12.3264	162.017	1.81703	-0.304073	0.006	-0.9674	0	1.24021	0	0	0	0	0	0	0	0	0	0
3.65	-11.4672	513.596	-37.0989	-0.214931	0.006	-0.440188	0	-4.15292	0	11.6994	164.563	1.66368	-0.302315	0.006	-0.967481	0	1.20784	0	0	0	0	0	0	0	0	0	0
3.66	-10.3433	517.461	-36.4665	-0.214544	0.006	-0.440165	0	-4.42307	0	11.0709	167.44	1.62006	-0.30042	0.006	-0.967647	0	1.17491	0	0	0	0	0	0	0	0	0	0
3.67	-9.20415	521.429	-35.8765	-0.21409	0.006	-0.44013	0	-4.69299	0	10.4341	170.636	1.68197	-0.298399	0.006	-0.9679	0	1.14182	0	0	0	0	0	0	0	0	0	0
3.68	-8.09183	525.457	-35.3245	-0.213548	0.006	-0.440083	0	-4.96099	0	9.78362	174.141	1.85047	-0.296263	0.006	-0.968241	0	1.10941	0	0	0	0	0	0	0	0	0	0
3.69	-7.04306	529.512	-34.7989	-0.212906	0.006	-0.440023	0	-5.2251	0	9.11764	177.939	2.12849	-0.29403	0.006	-0.968669	0	1.07881	0	0	0	0	0	0	0	0	0	0
3.7	-6.08679	533.575	-34.279	-0.212155	0.006	-0.439956	0	-5.48336	0	8.43948	182.005	2.51347	-0.29172	0.006	-0.969179	0	1.05109	0	0	0	0	0	0	0	0	0	0
3.71	-5.2409	537.641	-33.7373	-0.211295	0.006	-0.439886	0	-5.73397	0	7.75829	186.294	2.99257	-0.28936	0.006	-0.969761	0	1.02715	0	0	0	0	0	0	0	0	0	0
3.72	-4.51372	541.707	-33.1453	-0.210331	0.006	-0.439822	0	-5.97521	0	7.08599	190.752	3.54563	-0.286977	0.006	-0.970401	0	1.00802	0	0	0	0	0	0	0	0	0	0
3.73	-3.91007	545.754	-32.481	-0.209269	0.006	-0.439769	0	-6.2051	0	6.43125	195.329	4.15399	-0.284596	0.006	-0.971082	0	0.994921	0	0	0	0	0	0	0	0	0	0
3.74	-3.43808	549.75	-31.7326	-0.208115	0.006	-0.439733	0	-6.42154	0	5.79537	199.992	4.80832	-0.28224	0.006	-0.971791	0	0.988995	0	0	0	0	0	0	0	0	0	0
3.75	-3.11109	553.651	-30.8984	-0.206871	0.006	-0.439717	0	-6.62268	0	5.17379	204.723	5.5105	-0.279928	0.006	-0.972518	0	0.991286	0	0	0	0	0	0	0	0	0	0
3.76	-2.94555	557.405	-29.985	-0.205542	0.006	-0.439722	0	-6.80717	0	4.55997	209.515	6.27189	-0.277676	0.006	-0.973258	0	1.00264	0	0	0	0	0	0	0	0	0	0
3.77	-2.95907	560.952	-29.006	-0.20413	0.006	-0.439748	0	-6.97423	0	3.94555	214.368	7.11083	-0.275496	0.006	-0.974007	0	1.02349	0	0	0	0	0	0	0	0	0	0
3.78	-3.16664	564.229	-27.9815	-0.20264	0.006	-0.439794	0	-7.12367	0	3.32	219.278	8.04964	-0.2734	0.006	-0.974764	0	1.0538	0	0	0	0	0	0	0	0	0	0
3.79	-3.57604	567.179	-26.9367	-0.20108	0.006	-0.43986	0	-7.25579	0	2.67241	224.233	9.1089	-0.271396	0.006	-0.975527	0	1.09322	0	0	0	0	0	0	0	0	0	0
3.8	-4.18883	569.75	-25.9004	-0.199459	0.006	-0.439943	0	-7.37119	0	1.99537	229.197	10.2995	-0.26949	0.006	-0.976293	0	1.14092	0	0	0	0	0	0	0	0	0	0
3.81	-5.00177	571.888	-24.904	-0.197787	0.006	-0.440041	0	-7.47036	0	1.2877	234.117	11.6189	-0.26769	0.006	-0.977057	0	1.19567	0	0	0	0	0	0	0	0	0	0
3.82	-6.00257	573.536	-23.9784	-0.196079	0.006	-0.440151	0	-7.55357	0	0.555788	238.932	13.0548	-0.265998	0.006	-0.977814	0	1.25604	0	0	0	0	0	0	0	0	0	0
3.83	-7.16603	574.645	-23.1523	-0.194353	0.006	-0.440269	0	-7.62061	0	-0.188287	243.574	14.5918	-0.264421	0.006	-0.978559	0	1.32074	0	0	0	0	0	0	0	0	0	0
3.84	-8.45738	575.172	-22.4505	-0.19263	0.006	-0.44039	0	-7.67078	0	-0.927746	247.98	16.2138	-0.26296	0.006	-0.979289	0	1.38862	0	0	0	0	0	0	0	0	0	0
3.85	-9.83857	575.085	-21.894	-0.190929	0.006	-0.440511	0	-7.70299	0	-1.64089	252.084	17.9039	-0.261619	0.006	-0.980002	0	1.45851	0	0	0	0	0	0	0	0	0	0
3.86	-11.2731	574.365	-21.5004	-0.189268	0.006	-0.440628	0	-7.71591	0	-2.30239	255.831	19.6446	-0.260399	0.006	-0.980698	0	1.5292	0	0	0	0	0	0	0	0	0	0
3.87	-12.7274	573.009	-21.2849	-0.187659	0.006	-0.440736	0	-7.7081	0	-2.8865	259.172	21.4216	-0.259303	0.006	-0.981375	0	1.59928	0	0	0	0	0	0	0	0	0	0
3.88	-14.1714	571.024	-21.2613	-0.186112	0.006	-0.440832	0	-7.6781	0	-3.3711	262.068	23.224	-0.25833	0.006	-0.982037	0	1.66705	0	0	0	0	0	0	0	0	0	0
3.89	-15.5794	568.429	-21.4424	-0.184631	0.006	-0.440911	0	-7.62439	0	-3.73829	264.477	25.0397	-0.257481	0.006	-0.982685	0	1.73065	0	0	0	0	0	0	0	0	0	0
3.9	-16.9299	565.253	-21.8386	-0.18322	0.006	-0.440969	0	-7.54549	0	-3.97187	266.352	26.85	-0.256757	0.006	-0.983319	0	1.78812	0	0	0	0	0	0	0	0	0	0
3.91	-18.2052	561.527	-22.4566	-0.181879	0.006	-0.441004	0	-7.4401	0	-4.05604	267.646	28.6307	-0.256161	0.006	-0.983937	0	1.83755	0	0	0	0	0	0	0	0	0	0
3.92	-19.3901	557.29	-23.2979	-0.180609	0.006	-0.441012	0	-7.30743	0	-3.97713	268.321	30.3562	-0.255693	0.006	-0.984535	0	1.87731	0	0	0	0	0	0	0	0	0	0
3.93	-20.4725	552.588	-24.3604	-0.179408	0.006	-0.440991	0	-7.1473	0	-3.72658	268.353	32.0048	-0.255355	0.006	-0.985111	0	1.90609	0	0	0	0	0	0	0	0	0	0
3.94	-21.4427	547.476	-25.6392	-0.178278	0.006	-0.440942	0	-6.96017	0	-3.30215	267.731	33.559	-0.255146	0.006	-0.985664	0	1.92311	0	0	0	0	0	0	0	0	0	0
3.95	-22.2931	542.012	-27.1252	-0.177216	0.006	-0.440864	0	-6.74711	0	-2.70776	266.461	35.0032	-0.255065	0.006	-0.986192	0	1.92814	0	0	0	0	0	0	0	0	0	0
3.96	-23.0177	536.257	-28.8053	-0.176224	0.006	-0.440759	0	-6.50981	0	-1.95208	264.557	36.3251	-0.25511	0.006	-0.986696	0	1.92148	0	0	0	0	0	0	0	0	0	0
3.97	-23.6135	530.275	-30.6633	-0.175302	0.006	-0.440628	0	-6.25048	0	-1.04721	262.048	37.5191	-0.255278	0.006	-0.987176	0	1.90388	0	0	0	0	0	0	0	0	0	0
3.98	-24.0817	524.13	-32.6809	-0.17445	0.006	-0.440473	0	-5.97185	0	-0.00931687	258.973	38.5853	-0.255566	0.006	-0.987634	0	1.87633	0	0	0	0	0	0	0	0	0	0
3.99	-24.4276	517.89	-34.8361	-0.173666	0.006	-0.440294	0	-5.67723	0	1.13996	255.38	39.5269	-0.255971	0.006	-0.98807	0	1.84001	0	0	0	0	0	0	0	0	0	0
4	-24.6584	511.629	-37.1024	-0.172951	0.006	-0.440094	0	-5.37064	0	2.37403	251.335	40.3496	-0.256487	0.006	-0.988487	0	1.79625	0	0	0	0	0	0	0	0	0	0
4.01	-24.7828	505.424	-39.4497	-0.172306	0.006	-0.439874	0	-5.05664	0	3.66336	246.918	41.0626	-0.257109	0.006	-0.988886	0	1.74651	0	0	0	0	0	0	0	0	0	0
4.02	-24.8091	499.349	-41.847	-0.171736	0.006	-0.439638	0	-4.74014	0	4.97764	242.225	41.6797	-0.257833	0.006	-0.989271	0	1.69232	0	0	0	0	0	0	0	0	0	0
4.03	-24.7439	493.474	-44.2631	-0.171244	0.006	-0.439389	0	-4.42626	0	6.28776	237.367	42.2197	-0.258649	0.006	-0.989644	0	1.63522	0	0	0	0	0	0	0	0	0	0
4.04	-24.5928	487.859	-46.667	-0.170838	0.006	-0.43913	0	-4.12015	0	7.56675	232.457	42.7049	-0.25955	0.006	-0.990008	0	1.57673	0	0	0	0	0	0	0	0	0	0
4.05	-24.3607	482.557	-49.0281	-0.170526	0.006	-0.438868	0	-3.82679	0	8.79017	227.611	43.1589	-0.260524	0.006	-0.990363	0	1.51825	0	0	0	0	0	0	0	0	0	0
4.06	-24.0518	477.611	-51.3174	-0.170313	0.006	-0.438607	0	-3.5507	0	9.93684	222.938	43.6046	-0.261557	0.006	-0.990712	0	1.46085	0	0	0	0	0	0	0	0	0	0
4.07	-23.672	473.053	-53.51	-0.170204	0.006	-0.438352	0	-3.29557	0	10.9897	218.533	44.0603	-0.262634	0.006	-0.991053	0	1.40526	0	0	0	0	0	0	0	0	0	0
4.08	-23.2299	468.898	-55.5843	-0.170199	0.006	-0.43811	0	-3.06432	0	11.936	214.474	44.5377	-0.263739	0.006	-0.991385	0	1.35204	0	0	0	0	0	0	0	0	0	0
